<svg version="1.2" baseProfile="tiny-ps" xmlns="http://www.w3.org/2000/svg" viewBox="0 0 44 41" width="44" height="41">
	<title>Web 1920 – 7</title>
	<defs>
		<clipPath clipPathUnits="userSpaceOnUse" id="cp1">
			<path d="m-1501-40h1920v3751h-1920z" />
		</clipPath>
	</defs>
	<style>
		tspan { white-space:pre }
		.s0 { fill: #0c0c44 } 
	</style>
	<g id="Web 1920 – 7" clip-path="url(#cp1)">
		<g id="Group 14">
			<g id="black_mode">
				<path id="Path 348" fill-rule="evenodd" class="s0" d="m43.04 20.5c0 6.9-5.59 12.49-12.49 12.49c-1.75 0-3.42-0.37-4.94-1.02c-1.51 0.66-3.18 1.02-4.94 1.02c-6.9 0-12.49-5.59-12.49-12.49c0-6.9 5.59-12.5 12.49-12.5c1.75 0 3.42 0.37 4.94 1.02c1.51-0.66 3.18-1.02 4.94-1.02c6.9 0 12.5 5.6 12.49 12.5zm-20.27 9.77c-2.87-2.29-4.71-5.81-4.71-9.77c0-3.95 1.84-7.48 4.71-9.77c-0.68-0.14-1.38-0.22-2.1-0.22c-5.52 0-9.99 4.47-9.99 9.99c0 5.52 4.47 9.99 9.99 9.99c0.72 0 1.42-0.08 2.1-0.22zm17.77-9.77c0-5.52-4.47-9.99-9.99-9.99c-5.52 0-9.99 4.47-9.99 9.99c0 5.52 4.47 9.99 9.99 9.99c5.52 0 10-4.47 9.99-9.99z" />
				<path id="Path 349" class="s0" d="m5.54 20.51c-0.01 0.69-0.55 1.21-1.26 1.23c-0.44 0.01-0.89 0-1.33 0c-0.44 0-0.89 0.01-1.33 0c-0.7-0.01-1.24-0.56-1.24-1.24c0-0.67 0.53-1.23 1.24-1.24c0.9-0.02 1.8-0.02 2.7 0c0.7 0.01 1.23 0.58 1.22 1.25z" />
				<path id="Path 350" class="s0" d="m6.35 8.07c-0.45-0.5-0.41-1.24 0.04-1.7c0.47-0.48 1.23-0.52 1.73-0.05c0.64 0.6 1.26 1.21 1.85 1.85c0.19 0.21 0.27 0.53 0.34 0.67c-0.03 0.67-0.25 1.07-0.72 1.29c-0.48 0.23-0.96 0.17-1.35-0.19c-0.65-0.6-1.28-1.23-1.89-1.87z" />
				<path id="Path 351" class="s0" d="m10.31 32.14c-0.08 0.16-0.17 0.5-0.38 0.73c-0.55 0.62-1.15 1.2-1.75 1.77c-0.53 0.51-1.31 0.49-1.79-0.01c-0.47-0.49-0.47-1.24 0.03-1.76c0.57-0.6 1.16-1.19 1.76-1.76c0.39-0.38 0.87-0.47 1.38-0.25c0.48 0.21 0.71 0.6 0.75 1.28z" />
				<path id="Path 352" class="s0" d="m21.79 38.02c0 0.42 0.01 0.84 0 1.25c-0.02 0.71-0.58 1.24-1.26 1.23c-0.66 0-1.21-0.53-1.23-1.21c-0.02-0.86-0.02-1.72 0-2.58c0.02-0.68 0.58-1.21 1.24-1.21c0.68 0 1.23 0.54 1.25 1.24c0.02 0.43 0.01 0.86 0 1.28z" />
				<path id="Path 353" class="s0" d="m19.3 2.95c0-0.38-0.01-0.77 0-1.16c0.01-0.74 0.54-1.29 1.24-1.29c0.7 0 1.24 0.54 1.26 1.27c0.01 0.82 0.01 1.63 0 2.45c-0.01 0.73-0.56 1.28-1.26 1.27c-0.68 0-1.22-0.54-1.24-1.25c-0.01-0.43 0-0.85 0-1.29z" />
				<path id="Path 354" fill-rule="evenodd" class="s0" d="m26.77 21.75c-2.05-0.01-3.72-1.71-3.72-3.76c0-2.07 1.71-3.75 3.78-3.74c2.05 0.01 3.72 1.7 3.72 3.76c-0.01 2.07-1.7 3.75-3.78 3.74zm0.04-2.5c0.68 0 1.23-0.57 1.23-1.25c0-0.67-0.56-1.24-1.24-1.24c-0.67-0.01-1.24 0.56-1.25 1.23c-0.01 0.68 0.58 1.27 1.26 1.26z" />
				<path id="Path 355" class="s0" d="m29.34 26.75c-0.7 0.02-1.28-0.56-1.28-1.25c0-0.68 0.57-1.25 1.24-1.25c0.67-0.01 1.24 0.55 1.25 1.23c0 0.68-0.55 1.25-1.21 1.27z" />
				<path id="Path 356" class="s0" d="m35.55 15.5c0 0.7-0.59 1.27-1.28 1.25c-0.68-0.02-1.23-0.6-1.22-1.27c0.01-0.68 0.59-1.24 1.26-1.23c0.68 0.01 1.24 0.57 1.24 1.25z" />
			</g>
		</g>
	</g>
</svg>